<?xml version="1.0" encoding="iso-8859-1"?>
<!-- Uploaded to: SVG Repo, www.svgrepo.com, Generator: SVG Repo Mixer Tools -->
<svg height="800px" width="800px" version="1.1" id="Layer_1" xmlns="http://www.w3.org/2000/svg" xmlns:xlink="http://www.w3.org/1999/xlink" 
	 viewBox="0 0 512 512" xml:space="preserve">
<polygon style="fill:#D4D4D4;" points="489.27,141.892 295.988,141.892 275.089,242.941 295.988,341.993 443.789,341.993 "/>
<polygon style="fill:#EDEDED;" points="102.707,141.892 148.188,341.993 295.988,341.993 295.988,141.892 "/>
<polygon style="fill:#9D9D9D;" points="512,384.758 295.988,384.758 285.539,400.431 295.988,416.104 512,416.104 "/>
<path style="fill:#D4D4D4;" d="M119.164,384.758c-7.469,0-13.546-6.076-13.546-13.546c0-7.468,6.076-13.545,13.546-13.545h16.514
	l12.511-31.347h-29.024c-24.754,0-44.893,20.138-44.893,44.892s20.138,44.893,44.893,44.893h176.824v-31.347H119.164z"/>
<path style="fill:#9D9D9D;" d="M474.11,224.266V192.92h-71.504l5.598-49.258l-31.146-3.539l-6,52.796h-59.394v-51.027h-15.673
	l-10.45,101.049l10.45,99.052h15.673v-51.028h48.251l-5.598,49.259l31.146,3.539l6-52.797h67.487V259.62h-63.925l4.018-35.353
	L474.11,224.266L474.11,224.266z M363.476,259.62h-51.813v-35.353h55.831L363.476,259.62z"/>
<path style="fill:#D4D4D4;" d="M280.316,141.893v51.027h-59.394l-6-52.796l-31.146,3.539l5.598,49.258h-71.505v31.347h75.068
	l4.018,35.353h-63.925v31.347h67.487l6,52.797l31.146-3.539l-5.598-49.259h48.251v51.028h15.673V141.893H280.316z M280.316,259.62
	h-51.813l-4.018-35.353h55.831V259.62z"/>
<polygon style="fill:#6F6F6F;" points="508.906,126.219 295.988,126.219 285.539,141.891 295.988,157.566 469.635,157.566 
	431.279,326.321 295.988,326.321 285.539,341.994 295.988,357.668 456.3,357.668 "/>
<polygon style="fill:#9D9D9D;" points="160.699,326.321 152.836,291.725 122.343,157.566 295.988,157.566 295.988,126.219 
	115.218,126.219 96.979,45.972 0,45.972 0,77.319 71.957,77.319 135.678,357.668 295.988,357.668 295.988,326.321 "/>
<path style="fill:#027ACD;" d="M167.908,396.977l-9.025,35.799l9.025,33.252c19.038,0,34.526-15.487,34.526-34.526
	C202.433,412.464,186.946,396.977,167.908,396.977z"/>
<path style="fill:#3EAFF5;" d="M133.382,431.502c0,19.038,15.487,34.526,34.526,34.526v-69.051
	C148.87,396.977,133.382,412.464,133.382,431.502z"/>
<path style="fill:#D4D4D4;" d="M167.908,418.659l-7.034,12.843l7.034,12.843c7.081,0,12.843-5.762,12.843-12.843
	C180.751,424.421,174.989,418.659,167.908,418.659z"/>
<path style="fill:#EDEDED;" d="M155.065,431.502c0,7.081,5.762,12.843,12.843,12.843v-25.686
	C160.827,418.659,155.065,424.421,155.065,431.502z"/>
<path style="fill:#027ACD;" d="M414.945,396.977l-9.025,35.799l9.025,33.252c19.038,0,34.526-15.487,34.526-34.526
	C449.47,412.464,433.982,396.977,414.945,396.977z"/>
<path style="fill:#3EAFF5;" d="M380.418,431.502c0,19.038,15.487,34.526,34.526,34.526v-69.051
	C395.907,396.977,380.418,412.464,380.418,431.502z"/>
<path style="fill:#D4D4D4;" d="M414.945,418.659l-7.034,12.843l7.034,12.843c7.081,0,12.843-5.762,12.843-12.843
	C427.787,424.421,422.026,418.659,414.945,418.659z"/>
<path style="fill:#EDEDED;" d="M402.101,431.502c0,7.081,5.762,12.843,12.843,12.843v-25.686
	C407.862,418.659,402.101,424.421,402.101,431.502z"/>
</svg>